<svg width="82" height="82" viewBox="0 0 82 82" fill="none" xmlns="http://www.w3.org/2000/svg">
<path fill-rule="evenodd" clip-rule="evenodd" d="M34.3709 57.6026C41.691 64.2079 53.4121 60.5788 55.7191 50.9928L59.6956 34.4696C62.0546 24.6677 52.8422 16.0276 43.2116 19.0094L26.6175 24.1472C16.9868 27.129 14.2684 39.4631 21.7533 46.2171L34.3709 57.6026ZM33.7386 55.5323C41.0159 62.2652 52.8488 58.7013 55.1972 49.0693L58.5666 35.2496C60.9588 25.4381 51.7387 16.765 42.0916 19.7519L34.9236 21.9712L28.3754 23.9987C18.8136 26.9592 16.0445 39.1617 23.3918 45.9594L33.7386 55.5323Z" fill="#DDA0DD"/>
<path fill-rule="evenodd" clip-rule="evenodd" d="M36.9361 18.7567C27.1915 17.2547 19.3871 26.7229 22.7217 36.0016L28.4694 51.9952C31.879 61.4828 44.3224 63.6467 50.7348 55.8672L61.7838 42.4627C68.1962 34.6832 63.6968 22.8817 53.7328 21.3458L36.9361 18.7567ZM38.6009 20.1403C28.822 18.5081 20.8884 27.9832 24.2136 37.3231L28.9845 50.7236C32.3716 60.2376 44.8395 62.4249 51.2629 54.6321L56.0357 48.8418L60.3957 43.5522C66.7623 35.8283 62.3775 24.1089 52.5045 22.461L38.6009 20.1403Z" fill="#DDA0DD"/>
</svg>
