<svg width="229" height="264" viewBox="0 0 229 264" fill="none" xmlns="http://www.w3.org/2000/svg">
<path fill-rule="evenodd" clip-rule="evenodd" d="M121.758 126.521C125.142 117.26 117.388 107.751 107.635 109.201L-21.6095 128.426C-31.5815 129.909 -36.1431 141.687 -29.7718 149.5L54.6337 253.008C61.005 260.821 73.4596 258.723 76.9192 249.253L121.758 126.521ZM118.599 130.521C122.117 121.252 114.381 111.615 104.57 113.044L-17.5171 130.833C-27.5105 132.29 -32.0998 144.087 -25.7176 151.913L14.4547 201.177L52.9881 248.431C59.3138 256.188 71.6655 254.186 75.2171 244.828L118.599 130.521Z" fill="#DDA0DD"/>
<path fill-rule="evenodd" clip-rule="evenodd" d="M150.758 100.521C154.142 91.2598 146.387 81.7506 136.635 83.2012L7.39044 102.426C-2.58151 103.909 -7.1431 115.687 -0.771793 123.5L83.6336 227.008C90.0049 234.821 102.46 232.723 105.919 223.253L150.758 100.521ZM147.599 104.521C151.117 95.252 143.381 85.6147 133.57 87.0442L11.4829 104.833C1.4895 106.29 -3.09981 118.087 3.2824 125.913L43.4547 175.177L81.9881 222.431C88.3138 230.188 100.665 228.186 104.217 218.828L147.599 104.521Z" fill="#DDA0DD"/>
<path fill-rule="evenodd" clip-rule="evenodd" d="M179.758 74.5208C183.142 65.2598 175.387 55.7506 165.635 57.2012L36.3904 76.4259C26.4185 77.9092 21.8569 89.6868 28.2282 97.5001L112.634 201.008C119.005 208.821 131.46 206.723 134.919 197.253L179.758 74.5208ZM176.599 78.521C180.117 69.252 172.381 59.6147 162.57 61.0442L40.4829 78.8334C30.4895 80.2895 25.9002 92.0866 32.2824 99.9132L72.4547 149.177L110.988 196.431C117.314 204.188 129.665 202.186 133.217 192.828L176.599 78.521Z" fill="#DDA0DD"/>
</svg>
