<svg width="237" height="248" viewBox="0 0 237 248" fill="none" xmlns="http://www.w3.org/2000/svg">
<path fill-rule="evenodd" clip-rule="evenodd" d="M168.741 173.108C165.442 182.4 173.283 191.838 183.022 190.298L312.086 169.897C322.044 168.323 326.498 156.504 320.056 148.749L234.711 46.0151C228.268 38.2602 215.833 40.4719 212.46 49.9725L168.741 173.108ZM171.864 169.079C168.431 178.38 176.254 187.947 186.051 186.428L307.972 167.527C317.951 165.98 322.433 154.141 315.98 146.373L275.36 97.4774L236.398 50.5764C230.002 42.877 217.669 44.9915 214.202 54.3817L171.864 169.079Z" fill="#DDA0DD"/>
<path fill-rule="evenodd" clip-rule="evenodd" d="M128.741 161.108C125.442 170.4 133.283 179.838 143.022 178.298L272.086 157.897C282.044 156.323 286.498 144.504 280.056 136.749L194.711 34.0151C188.268 26.2602 175.833 28.4719 172.46 37.9725L128.741 161.108ZM131.864 157.079C128.431 166.38 136.254 175.947 146.051 174.428L267.972 155.527C277.951 153.98 282.433 142.141 275.98 134.373L235.36 85.4774L196.398 38.5764C190.002 30.877 177.669 32.9915 174.202 42.3817L131.864 157.079Z" fill="#DDA0DD"/>
<path fill-rule="evenodd" clip-rule="evenodd" d="M88.7413 149.108C85.4424 158.4 93.283 167.838 103.022 166.298L232.086 145.897C242.044 144.323 246.498 132.504 240.056 124.749L154.711 22.0151C148.268 14.2602 135.833 16.4719 132.46 25.9725L88.7413 149.108ZM91.8641 145.079C88.4309 154.38 96.2542 163.947 106.051 162.428L227.972 143.527C237.951 141.98 242.433 130.141 235.98 122.373L195.36 73.4774L156.398 26.5764C150.002 18.877 137.669 20.9915 134.202 30.3817L91.8641 145.079Z" fill="#DDA0DD"/>
<path fill-rule="evenodd" clip-rule="evenodd" d="M48.7413 137.108C45.4424 146.4 53.283 155.838 63.0217 154.298L192.086 133.897C202.044 132.323 206.498 120.504 200.056 112.749L114.711 10.0151C108.268 2.26022 95.8334 4.47189 92.4602 13.9725L48.7413 137.108ZM51.8641 133.079C48.4309 142.38 56.2542 151.947 66.0513 150.428L187.972 131.527C197.951 129.98 202.433 118.141 195.98 110.373L155.36 61.4774L116.398 14.5764C110.002 6.87704 97.6687 8.99147 94.2025 18.3817L51.8641 133.079Z" fill="#DDA0DD"/>
</svg>
